<?xml version="1.0" standalone="no"?>
<!DOCTYPE svg PUBLIC "-//W3C//DTD SVG 20010904//EN"
 "http://www.w3.org/TR/2001/REC-SVG-20010904/DTD/svg10.dtd">
<svg version="1.0" xmlns="http://www.w3.org/2000/svg"
 width="240.000000pt" height="240.000000pt" viewBox="0 0 240.000000 240.000000"
 preserveAspectRatio="xMidYMid meet">
<metadata>
Created by potrace 1.14, written by Peter Selinger 2001-2017
</metadata>
<g transform="translate(0.000000,240.000000) scale(0.100000,-0.100000)"
fill="#000000" stroke="none">
<path d="M1127 2324 c-1 -1 -27 -4 -57 -8 -49 -5 -105 -15 -165 -29 -175 -42
-378 -161 -518 -302 -274 -275 -390 -663 -312 -1040 76 -366 306 -655 649
-816 95 -44 149 -55 171 -33 18 18 17 13 19 145 l1 106 -102 -3 c-165 -6 -230
28 -291 154 -33 69 -62 105 -149 186 -30 27 -16 40 41 40 57 0 112 -36 167
-111 24 -31 54 -67 68 -80 52 -46 154 -60 237 -33 26 9 34 18 43 54 6 23 22
59 35 79 l25 37 -22 0 c-40 0 -181 40 -234 66 -179 87 -268 262 -259 509 5
113 24 177 78 253 33 46 33 48 22 102 -13 65 -9 137 9 200 11 38 17 46 41 48
42 5 153 -33 227 -77 l65 -39 60 15 c96 24 322 25 428 3 87 -19 90 -19 116 0
62 44 171 90 227 96 l58 6 14 -38 c18 -48 24 -189 11 -235 -8 -28 -7 -38 10
-59 32 -41 78 -142 87 -195 14 -77 6 -207 -18 -295 -51 -190 -180 -302 -399
-346 l-88 -18 32 -55 31 -56 3 -220 c2 -184 5 -222 19 -237 26 -29 83 -14 228
59 140 72 304 214 399 347 78 109 157 279 182 391 43 188 44 376 3 545 -83
342 -313 625 -632 775 -99 47 -246 90 -342 101 -60 7 -213 13 -218 8z"/>
</g>
</svg>
